<?xml version="1.0" encoding="utf-8"?>
<!-- Svg Vector Icons : http://www.onlinewebfonts.com/icon -->
<!DOCTYPE svg PUBLIC "-//W3C//DTD SVG 1.1//EN" "http://www.w3.org/Graphics/SVG/1.1/DTD/svg11.dtd">
<svg version="1.1" xmlns="http://www.w3.org/2000/svg" xmlns:xlink="http://www.w3.org/1999/xlink" x="0px" y="0px" viewBox="0 0 1000 1000" enable-background="new 0 0 1000 1000" xml:space="preserve">
<metadata> Svg Vector Icons : http://www.onlinewebfonts.com/icon </metadata>
<g><path d="M954.9,888.6C887.4,725.2,751,605.4,570,605.2v141.1c0,26-14.2,49.9-37,62.2c-22.8,12.3-50.4,11-71.9-3.5l-420-282.2C21.7,509.7,10,487.7,10,464.1c0-23.6,11.7-45.6,31.2-58.7l420-282.2c21.5-14.4,49.1-15.8,71.9-3.5c22.8,12.3,37,36.2,37,62.2V323c232,0,420,189.5,420,423.3C990,795.9,983.3,843.2,954.9,888.6L954.9,888.6L954.9,888.6z M500,393.8V252.3c0-21.3,0-58.6,0-58.6s-31.8-1.6-49.4,10.2L122,422.6c-16,10.7-25.6,24.3-25.6,43.6c0,19.3,9.6,37.3,25.6,48l328.6,204.3C468.3,730.4,500,731,500,731s0-32.8,0-54.2V535.3c401.3,0,455.7,271.4,455.7,271.4C955.7,485.9,710.1,393.8,500,393.8L500,393.8L500,393.8z"/></g>
</svg>